<svg version="1.1" xmlns="http://www.w3.org/2000/svg" viewBox="0 0 1084.0342407226562 550.471435546875" width="1084.0342407226562" height="550.471435546875">
  <!-- svg-source:excalidraw -->
  
  <defs>
    <style class="style-fonts">
      @font-face {
        font-family: "Virgil";
        src: url("https://excalidraw.com/Virgil.woff2");
      }
      @font-face {
        font-family: "Cascadia";
        src: url("https://excalidraw.com/Cascadia.woff2");
      }
      @font-face {
        font-family: "Assistant";
        src: url("https://excalidraw.com/Assistant-Regular.woff2");
      }
    </style>
    
  </defs>
  <g stroke-linecap="round" transform="translate(35.61907958984375 62.88818359375) rotate(0 139.60754394531247 65.5439453125)"><path d="M32 0 C82.39 -3.8, 127.46 -4.65, 247.22 0 C270.68 -2.11, 275.99 5.5, 279.22 32 C273.42 60.02, 278.21 78.53, 279.22 99.09 C280.42 117.64, 271.48 133.27, 247.22 131.09 C160.98 137.48, 84.02 133.83, 32 131.09 C6.48 131.26, -2.17 120.85, 0 99.09 C-6.02 75.39, -3.07 52.69, 0 32 C-1.13 12.14, 7.07 4.28, 32 0" stroke="none" stroke-width="0" fill="#ffc9c9"></path><path d="M32 0 C101.47 4.8, 175.43 4.82, 247.22 0 M32 0 C92.69 2.5, 150.62 1.97, 247.22 0 M247.22 0 C272.37 2.91, 281.95 11.09, 279.22 32 M247.22 0 C265.19 -1.49, 277.08 12.14, 279.22 32 M279.22 32 C281.26 53.69, 275.13 72.11, 279.22 99.09 M279.22 32 C278.03 53.65, 280.37 79.08, 279.22 99.09 M279.22 99.09 C275.53 120.91, 265.96 134.73, 247.22 131.09 M279.22 99.09 C274.67 119.63, 265.41 128.6, 247.22 131.09 M247.22 131.09 C200.58 131.54, 149.65 132.42, 32 131.09 M247.22 131.09 C171.7 131.47, 94.76 131.41, 32 131.09 M32 131.09 C11.68 130.04, -0.67 118.5, 0 99.09 M32 131.09 C8.06 127.9, -2.74 116.91, 0 99.09 M0 99.09 C2.13 77.83, -1.64 45.4, 0 32 M0 99.09 C0.39 77.25, -0.8 55.58, 0 32 M0 32 C3.49 10.75, 13.72 0.6, 32 0 M0 32 C-1.71 7.86, 13.29 1.2, 32 0" stroke="#e03131" stroke-width="2" fill="none"></path></g><g transform="translate(59.98673248291013 67.88818359375) rotate(0 115.23989105224611 25)"><text x="115.2398910522461" y="0" font-family="Virgil, Segoe UI Emoji" font-size="20px" fill="#e03131" text-anchor="middle" style="white-space: pre;" direction="ltr" dominant-baseline="text-before-edge">E-commerce Appplication</text><text x="115.2398910522461" y="25" font-family="Virgil, Segoe UI Emoji" font-size="20px" fill="#e03131" text-anchor="middle" style="white-space: pre;" direction="ltr" dominant-baseline="text-before-edge"></text></g><g stroke-linecap="round" transform="translate(110.41180419921875 104.22647094726562) rotate(0 69.0552978515625 31.588623046875)"><path d="M15.79 0 C53.06 -2.47, 82.84 -5.53, 122.32 0 C137.59 -1.14, 137.67 -0.14, 138.11 15.79 C139.22 23.73, 140.94 39.42, 138.11 47.38 C143.1 54.35, 137.69 60.31, 122.32 63.18 C82.19 62.24, 48.26 62.5, 15.79 63.18 C9.48 64.67, 5 52.39, 0 47.38 C-0.73 38.55, -3.19 31.04, 0 15.79 C-3.76 7.68, 1.14 -2.98, 15.79 0" stroke="none" stroke-width="0" fill="#ffc9c9"></path><path d="M15.79 0 C53.6 -1.18, 90.88 1.87, 122.32 0 M15.79 0 C50.64 1.9, 83.03 0.66, 122.32 0 M122.32 0 C129.92 -1.3, 136.25 6.54, 138.11 15.79 M122.32 0 C132.81 -1.58, 141.54 8.15, 138.11 15.79 M138.11 15.79 C139.25 25.93, 133.99 35.36, 138.11 47.38 M138.11 15.79 C136.7 23.38, 137.25 32.31, 138.11 47.38 M138.11 47.38 C134.16 57.23, 130.12 61.02, 122.32 63.18 M138.11 47.38 C134.37 60.93, 133.32 63.75, 122.32 63.18 M122.32 63.18 C92.34 61.64, 60.15 65.48, 15.79 63.18 M122.32 63.18 C100.81 60.58, 77.97 60.15, 15.79 63.18 M15.79 63.18 C3 60.41, -2.38 54.86, 0 47.38 M15.79 63.18 C8.61 64.24, 4.24 60.72, 0 47.38 M0 47.38 C1.31 34.59, 2.1 23.04, 0 15.79 M0 47.38 C2.03 37.75, 1.82 28.32, 0 15.79 M0 15.79 C-1.49 2.82, 7.55 1.04, 15.79 0 M0 15.79 C-3.25 3.48, 9.85 0.97, 15.79 0" stroke="#e03131" stroke-width="2" fill="none"></path></g><g transform="translate(116.21717071533203 123.31509399414062) rotate(0 63.24993133544922 12.5)"><text x="63.24993133544922" y="0" font-family="Virgil, Segoe UI Emoji" font-size="20px" fill="#e03131" text-anchor="middle" style="white-space: pre;" direction="ltr" dominant-baseline="text-before-edge">Microservices</text></g><g stroke-linecap="round" transform="translate(509.89202880859375 208.04736328125) rotate(0 0.0777587890625 0.07769775390625)"><path d="M0.04 0 C0.06 0, 0.08 0, 0.12 0 M0.04 0 C0.06 0, 0.07 0, 0.12 0 M0.12 0 C-0.3 0.1, -0.08 -0.49, 0.16 0.04 M0.12 0 C0.22 -0.45, 0.57 -0.51, 0.16 0.04 M0.16 0.04 C0.16 0.06, 0.15 0.08, 0.16 0.12 M0.16 0.04 C0.16 0.07, 0.16 0.1, 0.16 0.12 M0.16 0.12 C0.62 0.55, 0.59 0.47, 0.12 0.16 M0.16 0.12 C0.29 -0.29, 0.59 0.73, 0.12 0.16 M0.12 0.16 C0.09 0.15, 0.06 0.15, 0.04 0.16 M0.12 0.16 C0.09 0.15, 0.07 0.15, 0.04 0.16 M0.04 0.16 C-0.47 0.08, 0.53 -0.34, 0 0.12 M0.04 0.16 C-0.23 -0.32, -0.34 0.03, 0 0.12 M0 0.12 C0 0.09, 0 0.07, 0 0.04 M0 0.12 C0 0.09, 0 0.07, 0 0.04 M0 0.04 C0.22 0.66, -0.23 0.22, 0.04 0 M0 0.04 C0.65 0.67, -0.39 -0.41, 0.04 0" stroke="#e03131" stroke-width="2" fill="none"></path></g><g stroke-linecap="round" transform="translate(375.17266845703125 59.434051513671875) rotate(0 334.0673828125 67.67691040039064)"><path d="M32 0 C246.88 7.02, 463.98 5.45, 636.13 0 C653.77 0.69, 670.27 8.56, 668.13 32 C665.15 48.85, 660.88 68.79, 668.13 103.35 C667.52 119.59, 658.67 132.57, 636.13 135.35 C421.85 143.32, 209.27 142.22, 32 135.35 C15.54 133.28, -4.18 124.86, 0 103.35 C1.35 89.7, -5.67 67.54, 0 32 C-2.56 14.63, 9.54 1.47, 32 0" stroke="none" stroke-width="0" fill="#a5d8ff"></path><path d="M32 0 C196 -2.66, 361.23 -0.55, 636.13 0 M32 0 C218.28 0.69, 405.13 1.26, 636.13 0 M636.13 0 C657.67 -0.84, 671.96 13.57, 668.13 32 M636.13 0 C660.61 0.49, 664.77 9.17, 668.13 32 M668.13 32 C667.22 53.07, 671.1 69.8, 668.13 103.35 M668.13 32 C667.81 45.16, 667.15 60.53, 668.13 103.35 M668.13 103.35 C670.87 126.85, 653.78 135.84, 636.13 135.35 M668.13 103.35 C665.15 128.88, 652.92 134.57, 636.13 135.35 M636.13 135.35 C497.14 131.59, 356.24 131.45, 32 135.35 M636.13 135.35 C513.71 138.41, 392.49 137.24, 32 135.35 M32 135.35 C10.9 131.47, 1.01 123.64, 0 103.35 M32 135.35 C9.9 133.14, -2.61 121.5, 0 103.35 M0 103.35 C2.02 89.89, 3.53 72.8, 0 32 M0 103.35 C1.13 85.27, 1.58 65.43, 0 32 M0 32 C-1.84 11.51, 14.15 0.09, 32 0 M0 32 C3.51 11.36, 8.96 -2.81, 32 0" stroke="#1971c2" stroke-width="2" fill="none"></path></g><g transform="translate(495.6702575683594 64.43405151367188) rotate(0 213.56979370117188 12.5)"><text x="213.56979370117188" y="0" font-family="Virgil, Segoe UI Emoji" font-size="20px" fill="#1971c2" text-anchor="middle" style="white-space: pre;" direction="ltr" dominant-baseline="text-before-edge">Red Hat build of OpenTelemetry (Collector)</text></g><g stroke-linecap="round" transform="translate(434.22589111328125 106.9736328125) rotate(0 76.18841552734375 30)"><path d="M15 0 C66.01 2.91, 114.18 -2.75, 137.38 0 M15 0 C48.08 0.11, 83.51 -2.06, 137.38 0 M137.38 0 C151.31 -3.87, 156.33 6.68, 152.38 15 M137.38 0 C147 -3.36, 147.8 6.17, 152.38 15 M152.38 15 C151.56 23.98, 152.8 34.27, 152.38 45 M152.38 15 C151.01 25.78, 150.46 35.84, 152.38 45 M152.38 45 C152.86 57.5, 144.35 60.94, 137.38 60 M152.38 45 C151.21 55.23, 145.46 63.06, 137.38 60 M137.38 60 C101.64 59.54, 61.45 64.88, 15 60 M137.38 60 C102.77 59.23, 69.78 61.19, 15 60 M15 60 C1.29 59.13, -0.98 51.37, 0 45 M15 60 C7.19 63.2, -2.02 54.8, 0 45 M0 45 C-0.83 36.69, -1.3 20.62, 0 15 M0 45 C-0.52 36.2, 0.68 26.33, 0 15 M0 15 C3.67 5.5, 4.53 3.4, 15 0 M0 15 C4.39 3.12, 2.68 1.47, 15 0" stroke="#1971c2" stroke-width="2" fill="none"></path></g><g transform="translate(470.4843444824219 111.9736328125) rotate(0 39.929962158203125 25)"><text x="39.929962158203125" y="0" font-family="Virgil, Segoe UI Emoji" font-size="20px" fill="#1971c2" text-anchor="middle" style="white-space: pre;" direction="ltr" dominant-baseline="text-before-edge">OTLP </text><text x="39.929962158203125" y="25" font-family="Virgil, Segoe UI Emoji" font-size="20px" fill="#1971c2" text-anchor="middle" style="white-space: pre;" direction="ltr" dominant-baseline="text-before-edge">Receiver</text></g><g stroke-linecap="round" transform="translate(635.0645751953125 106.7364501953125) rotate(0 76.18841552734375 30)"><path d="M15 0 C55.51 2.27, 94.35 -1.43, 137.38 0 M15 0 C63.66 -1.87, 106.73 -0.42, 137.38 0 M137.38 0 C149.03 -3.66, 155.26 8.46, 152.38 15 M137.38 0 C150.3 -4.53, 149.07 1.63, 152.38 15 M152.38 15 C154.96 24.73, 150.78 37.21, 152.38 45 M152.38 15 C151.53 22.32, 152.29 26.02, 152.38 45 M152.38 45 C155.74 58.65, 147.44 63.79, 137.38 60 M152.38 45 C149.04 56.24, 148.4 63.34, 137.38 60 M137.38 60 C103.64 60.36, 64.9 63.64, 15 60 M137.38 60 C99.24 60.42, 58.9 58.49, 15 60 M15 60 C5.09 60.82, -1.85 56.22, 0 45 M15 60 C1.07 56.63, -1.01 53.75, 0 45 M0 45 C0.13 40.78, 0.87 28.27, 0 15 M0 45 C-0.58 38.92, 0.2 29.41, 0 15 M0 15 C-0.66 4.17, 2.84 0.76, 15 0 M0 15 C-4.57 4.62, 7.67 0.2, 15 0" stroke="#1971c2" stroke-width="2" fill="none"></path></g><g transform="translate(658.1830520629883 124.2364501953125) rotate(0 53.06993865966797 12.5)"><text x="53.06993865966797" y="0" font-family="Virgil, Segoe UI Emoji" font-size="20px" fill="#1971c2" text-anchor="middle" style="white-space: pre;" direction="ltr" dominant-baseline="text-before-edge">Processors</text></g><g stroke-linecap="round" transform="translate(844.4752197265625 106.65185546875) rotate(0 76.18841552734375 30)"><path d="M15 0 C63.87 -2.32, 102.65 2.95, 137.38 0 M15 0 C56.43 0.51, 101 1.4, 137.38 0 M137.38 0 C146.09 1.33, 148.55 3.64, 152.38 15 M137.38 0 C151.61 0.1, 147.85 2.74, 152.38 15 M152.38 15 C150.64 24.54, 150.87 29.26, 152.38 45 M152.38 15 C150.71 25.71, 153.61 37.3, 152.38 45 M152.38 45 C149.04 55.21, 143.95 56.07, 137.38 60 M152.38 45 C149.75 53.12, 147.34 63.29, 137.38 60 M137.38 60 C90.05 61.59, 42.94 54.83, 15 60 M137.38 60 C98.1 59.92, 59.14 58.32, 15 60 M15 60 C1.33 62.35, 2.5 54.37, 0 45 M15 60 C6.84 63.94, 2.24 50.72, 0 45 M0 45 C4.14 34.48, -2.05 29.83, 0 15 M0 45 C-0.55 35.97, -0.99 29.28, 0 15 M0 15 C-2.99 8.68, 1.59 2.06, 15 0 M0 15 C2.8 8.73, 8.08 1.88, 15 0" stroke="#1971c2" stroke-width="2" fill="none"></path></g><g transform="translate(878.1136779785156 111.65185546875) rotate(0 42.549957275390625 25)"><text x="42.549957275390625" y="0" font-family="Virgil, Segoe UI Emoji" font-size="20px" fill="#1971c2" text-anchor="middle" style="white-space: pre;" direction="ltr" dominant-baseline="text-before-edge">OTLP </text><text x="42.549957275390625" y="25" font-family="Virgil, Segoe UI Emoji" font-size="20px" fill="#1971c2" text-anchor="middle" style="white-space: pre;" direction="ltr" dominant-baseline="text-before-edge">Exporter</text></g><g stroke-linecap="round"><g transform="translate(589.7106323242188 143.8614501953125) rotate(0 23.631591796875 -1.362548828125)"><path d="M-0.12 0.04 C7.67 -0.44, 38.87 -2.3, 46.72 -2.7 M0.81 -0.41 C8.77 -0.81, 40.07 -1.51, 47.67 -1.98" stroke="#f08c00" stroke-width="2" fill="none"></path></g><g transform="translate(589.7106323242188 143.8614501953125) rotate(0 23.631591796875 -1.362548828125)"><path d="M25.76 6.98 C32.25 3.39, 38.65 1.17, 47.67 -1.98 M25.76 6.98 C33.75 3.8, 42.05 0.96, 47.67 -1.98" stroke="#f08c00" stroke-width="2" fill="none"></path></g><g transform="translate(589.7106323242188 143.8614501953125) rotate(0 23.631591796875 -1.362548828125)"><path d="M25.13 -9.2 C31.83 -8.05, 38.41 -5.52, 47.67 -1.98 M25.13 -9.2 C33.4 -6.45, 41.93 -3.35, 47.67 -1.98" stroke="#f08c00" stroke-width="2" fill="none"></path></g></g><mask></mask><g stroke-linecap="round"><g transform="translate(792.7246704101562 140.39410400390625) rotate(0 28.6361083984375 -1.3253173828125)"><path d="M-0.64 -0.43 C9.26 -0.91, 48.41 -2.27, 58.22 -2.55 M1.23 -1.7 C11.15 -2, 48.31 -0.55, 57.77 -0.96" stroke="#f08c00" stroke-width="2" fill="none"></path></g><g transform="translate(792.7246704101562 140.39410400390625) rotate(0 28.6361083984375 -1.3253173828125)"><path d="M34.25 7.53 C38.3 7.5, 43.98 5.77, 57.77 -0.96 M34.25 7.53 C42.3 4.2, 50.74 0.67, 57.77 -0.96" stroke="#f08c00" stroke-width="2" fill="none"></path></g><g transform="translate(792.7246704101562 140.39410400390625) rotate(0 28.6361083984375 -1.3253173828125)"><path d="M34.3 -9.57 C38.39 -6.11, 44.06 -4.36, 57.77 -0.96 M34.3 -9.57 C42.3 -6.98, 50.73 -4.58, 57.77 -0.96" stroke="#f08c00" stroke-width="2" fill="none"></path></g></g><mask></mask><g stroke-linecap="round"><g transform="translate(260.7758178710937 137.2325797761033) rotate(0 93.00561523437503 -0.9996105514825615)"><path d="M-0.84 -0.84 C30.38 -1.08, 155.56 -1.03, 186.53 -1.26 M0.92 1.33 C32.1 0.74, 154.79 -2.6, 185.86 -3" stroke="#f08c00" stroke-width="2" fill="none"></path></g><g transform="translate(260.7758178710937 137.2325797761033) rotate(0 93.00561523437503 -0.9996105514825615)"><path d="M162.55 6.04 C166.6 4.96, 174.71 0.25, 185.86 -3 M162.55 6.04 C168.85 2.53, 176.62 1.48, 185.86 -3" stroke="#f08c00" stroke-width="2" fill="none"></path></g><g transform="translate(260.7758178710937 137.2325797761033) rotate(0 93.00561523437503 -0.9996105514825615)"><path d="M162.2 -11.06 C166.35 -8.13, 174.54 -8.82, 185.86 -3 M162.2 -11.06 C168.49 -9.77, 176.36 -6.01, 185.86 -3" stroke="#f08c00" stroke-width="2" fill="none"></path></g></g><mask></mask><g stroke-linecap="round" transform="translate(332.42596435546875 230.4722900390625) rotate(0 83.24462890625 66.23870849609374)"><path d="M32 0 C57.2 -2.39, 83.88 -1.11, 134.49 0 C158.72 2.33, 167.72 8.3, 166.49 32 C165.71 46.55, 168.83 59.67, 166.49 100.48 C166.08 123.06, 158.96 134.68, 134.49 132.48 C96.07 130.36, 53.35 134.25, 32 132.48 C8.7 132.86, -0.46 120.42, 0 100.48 C-0.7 78.62, -0.69 53.12, 0 32 C-3.43 13.78, 12.02 2.05, 32 0" stroke="none" stroke-width="0" fill="#b2f2bb"></path><path d="M32 0 C60.5 -1.02, 90.96 -1.12, 134.49 0 M32 0 C56.2 1.08, 79.41 0.51, 134.49 0 M134.49 0 C154.09 1.79, 168.48 11.94, 166.49 32 M134.49 0 C155.55 1.41, 164.95 11.97, 166.49 32 M166.49 32 C166.35 55.65, 168.4 79.44, 166.49 100.48 M166.49 32 C166.93 53.69, 165.8 74.1, 166.49 100.48 M166.49 100.48 C166.74 122.51, 156.95 130.49, 134.49 132.48 M166.49 100.48 C164.41 121.09, 157.06 132.45, 134.49 132.48 M134.49 132.48 C97.3 130.81, 59.94 131.1, 32 132.48 M134.49 132.48 C113.6 132.38, 91.5 132.64, 32 132.48 M32 132.48 C11.82 133.82, -0.73 120.4, 0 100.48 M32 132.48 C12.95 133.2, 1.32 123.71, 0 100.48 M0 100.48 C-0.83 82.78, -1.7 64.23, 0 32 M0 100.48 C-0.11 83.64, 0.16 68.27, 0 32 M0 32 C-1.31 11.28, 10.47 0.72, 32 0 M0 32 C-1.44 12.89, 9.83 -1.42, 32 0" stroke="#2f9e44" stroke-width="2" fill="none"></path></g><g transform="translate(360.2506561279297 284.21099853515625) rotate(0 55.41993713378906 12.500000000000007)"><text x="55.41993713378906" y="0" font-family="Virgil, Segoe UI Emoji" font-size="20px" fill="#2f9e44" text-anchor="middle" style="white-space: pre;" direction="ltr" dominant-baseline="text-before-edge">Prometheus</text></g><g stroke-linecap="round" transform="translate(528.8241577148438 228.9156494140625) rotate(0 224.0765380859376 68.16268920898438)"><path d="M32 0 C150.9 -4.3, 269.58 -4.61, 416.15 0 C434.52 2.48, 451.27 11.13, 448.15 32 C449.02 58.08, 450.5 77.93, 448.15 104.33 C446.17 126.54, 439.13 138.38, 416.15 136.33 C302.08 140.31, 191.93 137.88, 32 136.33 C11.27 139.32, -2.3 126.58, 0 104.33 C-3.2 75.61, -0.69 51.5, 0 32 C-0.73 9.37, 12.4 -2.42, 32 0" stroke="none" stroke-width="0" fill="#b2f2bb"></path><path d="M32 0 C151.13 1.2, 269.5 1.67, 416.15 0 M32 0 C149.67 0.16, 266.98 0.34, 416.15 0 M416.15 0 C437.96 0.73, 447.67 10.41, 448.15 32 M416.15 0 C436.29 -0.59, 446.85 8.72, 448.15 32 M448.15 32 C449.86 56.04, 450.45 79.66, 448.15 104.33 M448.15 32 C447.02 50.52, 447.9 67.97, 448.15 104.33 M448.15 104.33 C449.63 124.41, 436.58 137.77, 416.15 136.33 M448.15 104.33 C446.97 126.75, 437.55 137.45, 416.15 136.33 M416.15 136.33 C327.99 134.64, 238.55 135.26, 32 136.33 M416.15 136.33 C328.57 135.99, 240.8 135.45, 32 136.33 M32 136.33 C10.17 135.4, 0.14 126.35, 0 104.33 M32 136.33 C9.65 137.54, -0.49 126.8, 0 104.33 M0 104.33 C-2.3 81.93, 1.15 60.68, 0 32 M0 104.33 C0.22 76.82, 0.58 49.01, 0 32 M0 32 C1.63 11.97, 10.91 -1.39, 32 0 M0 32 C-0.1 11.88, 9.85 0.28, 32 0" stroke="#2f9e44" stroke-width="2" fill="none"></path></g><g transform="translate(611.1008148193359 233.9156494140625) rotate(0 141.7998809814453 12.5)"><text x="141.7998809814453" y="0" font-family="Virgil, Segoe UI Emoji" font-size="20px" fill="#2f9e44" text-anchor="middle" style="white-space: pre;" direction="ltr" dominant-baseline="text-before-edge">Red Hat Distributed Tracing</text></g><g stroke-linecap="round" transform="translate(595.8080444335938 273.61846923828125) rotate(0 66.9180908203125 28.51419067382814)"><path d="M14.26 0 C49.96 1.54, 91.84 -0.71, 119.58 0 C132.6 2.23, 136.94 3.49, 133.84 14.26 C132.56 21.03, 132.02 26.39, 133.84 42.77 C133.2 51.87, 129.85 57.81, 119.58 57.03 C78.7 58.64, 33.1 58.63, 14.26 57.03 C1.61 53.48, -3.5 54.18, 0 42.77 C-0.19 32.46, 1.62 18.06, 0 14.26 C-0.86 4.88, 4.87 1.76, 14.26 0" stroke="none" stroke-width="0" fill="#b2f2bb"></path><path d="M14.26 0 C57.83 2.47, 98.23 0.07, 119.58 0 M14.26 0 C36.52 -0.84, 59.89 -0.5, 119.58 0 M119.58 0 C129.08 -0.28, 133.72 5.79, 133.84 14.26 M119.58 0 C126.83 1.96, 134.7 2.63, 133.84 14.26 M133.84 14.26 C134.26 22.44, 132.41 26.94, 133.84 42.77 M133.84 14.26 C134.25 22.01, 133.25 27.59, 133.84 42.77 M133.84 42.77 C134.85 54.04, 130.13 56.13, 119.58 57.03 M133.84 42.77 C134.88 53.85, 129.83 58.67, 119.58 57.03 M119.58 57.03 C86.19 57.71, 54.34 58.6, 14.26 57.03 M119.58 57.03 C91.18 58.2, 64.14 57.13, 14.26 57.03 M14.26 57.03 C5.89 55.27, 1.55 53, 0 42.77 M14.26 57.03 C6.29 55.97, -2.25 54.53, 0 42.77 M0 42.77 C0.98 32.39, -0.38 20.98, 0 14.26 M0 42.77 C-0.54 31.68, -0.62 23.33, 0 14.26 M0 14.26 C1.8 5.47, 6.49 0.99, 14.26 0 M0 14.26 C1.34 4.69, 5.68 -0.84, 14.26 0" stroke="#2f9e44" stroke-width="2" fill="none"></path></g><g transform="translate(629.4661636352539 289.6326599121094) rotate(0 33.259971618652344 12.5)"><text x="33.259971618652344" y="0" font-family="Virgil, Segoe UI Emoji" font-size="20px" fill="#2f9e44" text-anchor="middle" style="white-space: pre;" direction="ltr" dominant-baseline="text-before-edge">Jaeger</text></g><g stroke-linecap="round" transform="translate(792.2589721679688 274.0137634277344) rotate(0 65.862060546875 28.423919677734375)"><path d="M14.21 0 C36.26 -4.08, 64.27 0.39, 117.51 0 C130.08 -1.62, 134 5.49, 131.72 14.21 C130.26 25.45, 128.89 31.6, 131.72 42.64 C133.02 54.81, 130.14 58.75, 117.51 56.85 C90.59 58.31, 63.76 59.18, 14.21 56.85 C4.08 54.82, 0.85 53.76, 0 42.64 C0.52 29.62, -1.69 23.39, 0 14.21 C3.45 5.78, 5.75 -0.27, 14.21 0" stroke="none" stroke-width="0" fill="#b2f2bb"></path><path d="M14.21 0 C45.28 0.51, 76.88 0.26, 117.51 0 M14.21 0 C35.41 -0.15, 56.1 0.08, 117.51 0 M117.51 0 C127.56 -1.31, 132.69 5.37, 131.72 14.21 M117.51 0 C128.93 2.26, 132.74 6.97, 131.72 14.21 M131.72 14.21 C129.68 18.97, 132.93 27.07, 131.72 42.64 M131.72 14.21 C132.08 21.66, 131.6 28.77, 131.72 42.64 M131.72 42.64 C129.9 52.77, 127.52 57.91, 117.51 56.85 M131.72 42.64 C129.76 51.1, 125.21 57.36, 117.51 56.85 M117.51 56.85 C92.97 56.21, 66.26 58.28, 14.21 56.85 M117.51 56.85 C82.71 58.64, 48.27 58.09, 14.21 56.85 M14.21 56.85 C4.95 58.3, 0 53.69, 0 42.64 M14.21 56.85 C4.72 54.91, 1.92 53.24, 0 42.64 M0 42.64 C1.86 35.05, 0.82 23.24, 0 14.21 M0 42.64 C0.45 33.42, 0.95 24.25, 0 14.21 M0 14.21 C0.76 3.18, 3.69 1.53, 14.21 0 M0 14.21 C0.44 6.28, 5.61 -2.08, 14.21 0" stroke="#2f9e44" stroke-width="2" fill="none"></path></g><g transform="translate(827.8110656738281 289.93768310546875) rotate(0 30.309967041015625 12.5)"><text x="30.309967041015625" y="0" font-family="Virgil, Segoe UI Emoji" font-size="20px" fill="#2f9e44" text-anchor="middle" style="white-space: pre;" direction="ltr" dominant-baseline="text-before-edge">Tempo</text></g><g stroke-linecap="round" transform="translate(318.78802490234375 413.98028564453125) rotate(0 327.1524658203125 46.290191650390625)"><path d="M23.15 0 C188.59 -4.18, 357.54 -3.45, 631.16 0 C643.41 2.7, 653.92 4.19, 654.3 23.15 C656.87 36.91, 653.77 48.92, 654.3 69.44 C655.33 83.98, 644.73 94.17, 631.16 92.58 C479.99 90.05, 330.85 88.88, 23.15 92.58 C10.4 90.59, 1.88 86.18, 0 69.44 C-0.98 56.81, -2.68 37.51, 0 23.15 C1.12 9.17, 4.91 -0.9, 23.15 0" stroke="none" stroke-width="0" fill="#eebefa"></path><path d="M23.15 0 C172.43 0.2, 323.38 0.27, 631.16 0 M23.15 0 C261.5 0.25, 499.67 -0.01, 631.16 0 M631.16 0 C646.91 -0.33, 654.82 8.77, 654.3 23.15 M631.16 0 C646.54 -1.28, 656.3 8.23, 654.3 23.15 M654.3 23.15 C654.38 40.46, 653.82 58.84, 654.3 69.44 M654.3 23.15 C655.59 32.78, 653.76 43.18, 654.3 69.44 M654.3 69.44 C654.16 84.62, 646.18 91.92, 631.16 92.58 M654.3 69.44 C653.75 83.72, 645.22 94.01, 631.16 92.58 M631.16 92.58 C463.38 90.72, 296.44 90.36, 23.15 92.58 M631.16 92.58 C395.41 90.69, 158.94 90.88, 23.15 92.58 M23.15 92.58 C8.55 93.66, 1.84 83.9, 0 69.44 M23.15 92.58 C9.19 93.17, 1.93 85.93, 0 69.44 M0 69.44 C0.36 55.77, -1.76 38.12, 0 23.15 M0 69.44 C0.44 52.71, 0.03 36.65, 0 23.15 M0 23.15 C-1.12 5.85, 8.79 -0.53, 23.15 0 M0 23.15 C-0.42 7.92, 9.76 0.29, 23.15 0" stroke="#1e1e1e" stroke-width="2" fill="none"></path></g><g transform="translate(548.7705535888672 418.98028564453125) rotate(0 97.16993713378906 12.5)"><text x="97.16993713378906" y="0" font-family="Virgil, Segoe UI Emoji" font-size="20px" fill="#9c36b5" text-anchor="middle" style="white-space: pre;" direction="ltr" dominant-baseline="text-before-edge">Dashboards and UI</text></g><g stroke-linecap="round" transform="translate(404.33184814453125 452.81695556640625) rotate(0 67.901611328125 17.5)"><path d="M8.75 0 C53.69 -0.94, 94.43 0.13, 127.05 0 C135.31 -1.99, 136.71 5.93, 135.8 8.75 C137.88 10.73, 137.34 19.09, 135.8 26.25 C134.49 35.08, 133.05 34.99, 127.05 35 C85.11 36.23, 33.27 36.81, 8.75 35 C0.41 31.64, 1.22 30.98, 0 26.25 C-2.01 21.31, 1.62 19.33, 0 8.75 C1.24 3.77, 3.34 1.43, 8.75 0" stroke="none" stroke-width="0" fill="#eebefa"></path><path d="M8.75 0 C41.59 1.22, 76.22 -0.36, 127.05 0 M8.75 0 C38.29 -0.65, 68.59 -1.56, 127.05 0 M127.05 0 C132.37 -1.04, 135.94 2.95, 135.8 8.75 M127.05 0 C133.49 0.19, 135.6 3.77, 135.8 8.75 M135.8 8.75 C134.63 12.86, 137.55 20.27, 135.8 26.25 M135.8 8.75 C135.51 12.86, 135.11 16.62, 135.8 26.25 M135.8 26.25 C134.64 30.19, 133.48 34.71, 127.05 35 M135.8 26.25 C138.1 34.14, 133.25 34.88, 127.05 35 M127.05 35 C93.62 36.55, 55.89 35.84, 8.75 35 M127.05 35 C94.93 33.97, 62.16 34.06, 8.75 35 M8.75 35 C1.66 33.97, -0.91 32.54, 0 26.25 M8.75 35 C3.97 37.27, 1.09 33.11, 0 26.25 M0 26.25 C-1.02 21.42, 0.53 13.01, 0 8.75 M0 26.25 C-0.54 19.02, -0.39 12.16, 0 8.75 M0 8.75 C-0.35 3.12, 2.69 1.21, 8.75 0 M0 8.75 C1.87 1.18, 3.71 1.09, 8.75 0" stroke="#9c36b5" stroke-width="2" fill="none"></path></g><g transform="translate(430.50347900390625 457.81695556640625) rotate(0 41.72998046875 12.5)"><text x="41.72998046875" y="0" font-family="Virgil, Segoe UI Emoji" font-size="20px" fill="#9c36b5" text-anchor="middle" style="white-space: pre;" direction="ltr" dominant-baseline="text-before-edge">Grafana</text></g><g stroke-linecap="round" transform="translate(605.0247192382812 452.9976806640625) rotate(0 67.901611328125 17.5)"><path d="M8.75 0 C36.15 -1.48, 59.41 1.61, 127.05 0 C129.68 2.63, 132.54 0.12, 135.8 8.75 C138.31 9.55, 134.5 16.84, 135.8 26.25 C137.32 32.81, 130.5 33.99, 127.05 35 C92.44 32.07, 54.68 32.18, 8.75 35 C5.65 31.69, -0.75 31.69, 0 26.25 C-2.12 22.98, -1.94 15.64, 0 8.75 C1.73 0.86, 4.42 -1.86, 8.75 0" stroke="none" stroke-width="0" fill="#eebefa"></path><path d="M8.75 0 C54.53 1.86, 102.18 1.33, 127.05 0 M8.75 0 C47.83 -0.81, 84.87 -1.32, 127.05 0 M127.05 0 C132.44 1.42, 135.84 3.87, 135.8 8.75 M127.05 0 C132.49 -1.24, 137.45 1, 135.8 8.75 M135.8 8.75 C135.31 15.74, 136.33 18.8, 135.8 26.25 M135.8 8.75 C135.41 13.39, 135.22 17.24, 135.8 26.25 M135.8 26.25 C137.51 31.63, 134.46 36.56, 127.05 35 M135.8 26.25 C135.62 31.17, 135 35.53, 127.05 35 M127.05 35 C99.36 34.62, 72.7 34.49, 8.75 35 M127.05 35 C89.94 34.56, 52.16 35.08, 8.75 35 M8.75 35 C4.58 36.1, -0.24 31.37, 0 26.25 M8.75 35 C4.69 36.58, 2.24 34.38, 0 26.25 M0 26.25 C0.07 20.4, 0.62 12.92, 0 8.75 M0 26.25 C-0.77 22.92, -0.14 17.19, 0 8.75 M0 8.75 C0.41 2.99, 4.91 0.72, 8.75 0 M0 8.75 C1.15 4.27, 2.13 -1.81, 8.75 0" stroke="#9c36b5" stroke-width="2" fill="none"></path></g><g transform="translate(622.0763626098633 457.9976806640625) rotate(0 50.84996795654297 12.5)"><text x="50.84996795654297" y="0" font-family="Virgil, Segoe UI Emoji" font-size="20px" fill="#9c36b5" text-anchor="middle" style="white-space: pre;" direction="ltr" dominant-baseline="text-before-edge">Jaeger UI</text></g><g stroke-linecap="round" transform="translate(791.4508666992188 453.18963623046875) rotate(0 67.901611328125 17.5)"><path d="M8.75 0 C40.81 -3.4, 69.83 -1.73, 127.05 0 C135.95 -2.7, 134.93 4.53, 135.8 8.75 C138.9 14.32, 136.65 17.79, 135.8 26.25 C136.51 32.3, 133.69 37.19, 127.05 35 C91.71 35.46, 56.16 35.44, 8.75 35 C0.46 34.88, 2.5 30.23, 0 26.25 C-3.06 20.29, 0.61 18.38, 0 8.75 C1.18 3.1, 5.85 -2.56, 8.75 0" stroke="none" stroke-width="0" fill="#eebefa"></path><path d="M8.75 0 C49.36 0.08, 90.05 -1.65, 127.05 0 M8.75 0 C37.41 -0.8, 67.35 -0.72, 127.05 0 M127.05 0 C132.55 -1.16, 135.19 1.18, 135.8 8.75 M127.05 0 C134.32 -1.15, 137.05 4.42, 135.8 8.75 M135.8 8.75 C134.02 12.79, 136.54 17.37, 135.8 26.25 M135.8 8.75 C135.78 12.73, 136.7 17.04, 135.8 26.25 M135.8 26.25 C137.03 30.51, 132.67 36.63, 127.05 35 M135.8 26.25 C134.77 29.81, 134.92 34.28, 127.05 35 M127.05 35 C95.38 32.7, 65.8 32.76, 8.75 35 M127.05 35 C99.55 33.82, 70.91 33.56, 8.75 35 M8.75 35 C2.48 36.44, -1.17 30.5, 0 26.25 M8.75 35 C0.97 36.97, 0.76 30.16, 0 26.25 M0 26.25 C-1.41 21.17, 0.47 15.73, 0 8.75 M0 26.25 C-0.3 19.04, -0.65 12.55, 0 8.75 M0 8.75 C1.75 2.46, 1.87 -1.03, 8.75 0 M0 8.75 C1.28 4.83, 0.9 -0.55, 8.75 0" stroke="#9c36b5" stroke-width="2" fill="none"></path></g><g transform="translate(821.9524993896484 458.18963623046875) rotate(0 37.39997863769531 12.5)"><text x="37.39997863769531" y="0" font-family="Virgil, Segoe UI Emoji" font-size="20px" fill="#9c36b5" text-anchor="middle" style="white-space: pre;" direction="ltr" dominant-baseline="text-before-edge">Kiali UI</text></g><g stroke-linecap="round"><g transform="translate(905.1363546784039 175.13800048828125) rotate(0 -331.8428660599051 64.46089471550948)"><path d="M-1.07 0.73 C-111.74 8.61, -564.51 25.1, -663.01 46.35 C-761.51 67.61, -603.9 114.69, -592.07 128.26 M0.57 0.07 C-110.28 8.15, -564.66 25.91, -663.6 47.43 C-762.55 68.96, -605.05 115.76, -593.11 129.23" stroke="#f08c00" stroke-width="2" fill="none"></path></g><g transform="translate(905.1363546784039 175.13800048828125) rotate(0 -331.8428660599051 64.46089471550948)"><path d="M-617.95 126.4 C-607.24 128.83, -600.41 127.91, -593.11 129.23 M-617.95 126.4 C-610.91 126.8, -606.61 128.81, -593.11 129.23" stroke="#f08c00" stroke-width="2" fill="none"></path></g><g transform="translate(905.1363546784039 175.13800048828125) rotate(0 -331.8428660599051 64.46089471550948)"><path d="M-610.32 111.09 C-602.64 119.32, -598.73 124.26, -593.11 129.23 M-610.32 111.09 C-605.21 115.17, -602.78 120.92, -593.11 129.23" stroke="#f08c00" stroke-width="2" fill="none"></path></g></g><mask></mask><g stroke-linecap="round"><g transform="translate(972.3064005128047 177.01824951171875) rotate(0 25.432279479925796 61.14049272134379)"><path d="M0.84 -0.31 C9.29 15.92, 47.79 76, 50.98 96.3 C54.18 116.6, 25.19 117.1, 20.01 121.5 M-0.18 -1.52 C8.09 14.99, 46.92 77.04, 50.1 97.69 C53.28 118.35, 23.94 118.02, 18.89 122.4" stroke="#f08c00" stroke-width="2" fill="none"></path></g><g transform="translate(972.3064005128047 177.01824951171875) rotate(0 25.432279479925796 61.14049272134379)"><path d="M34.21 109.82 C28.59 114.22, 23.65 117.01, 18.89 122.4 M34.21 109.82 C31.32 111.98, 27.43 116.46, 18.89 122.4" stroke="#f08c00" stroke-width="2" fill="none"></path></g><g transform="translate(972.3064005128047 177.01824951171875) rotate(0 25.432279479925796 61.14049272134379)"><path d="M38.71 122.61 C31.74 122.88, 25.34 121.5, 18.89 122.4 M38.71 122.61 C34.85 121.79, 29.9 123.27, 18.89 122.4" stroke="#f08c00" stroke-width="2" fill="none"></path></g></g><mask></mask><g stroke-linecap="round"><g transform="translate(319.44232177734375 322.38519287109375) rotate(0 -51.83624267578125 72.55190341565316)"><path d="M1.18 0.84 C-16.08 12.62, -101.61 47.4, -103.7 71.62 C-105.78 95.83, -26.68 133.92, -11.32 146.14 M0.35 0.23 C-17.07 12.09, -102.56 48.84, -104.66 72.86 C-106.76 96.87, -27.76 132.17, -12.25 144.34" stroke="#f08c00" stroke-width="2" fill="none"></path></g><g transform="translate(319.44232177734375 322.38519287109375) rotate(0 -51.83624267578125 72.55190341565316)"><path d="M-36.8 139.62 C-28.23 140.7, -23.42 141.61, -12.25 144.34 M-36.8 139.62 C-27.34 142.12, -16.99 142.55, -12.25 144.34" stroke="#f08c00" stroke-width="2" fill="none"></path></g><g transform="translate(319.44232177734375 322.38519287109375) rotate(0 -51.83624267578125 72.55190341565316)"><path d="M-28.02 124.94 C-21.89 130.38, -19.64 135.56, -12.25 144.34 M-28.02 124.94 C-22.02 133.09, -15.06 139.19, -12.25 144.34" stroke="#f08c00" stroke-width="2" fill="none"></path></g></g><mask></mask><g stroke-linecap="round"><g transform="translate(994.2203979492188 327.27740478515625) rotate(0 12.304931640625114 72.39766759217974)"><path d="M-0.37 0.16 C4.81 19, 33.41 87.94, 31.99 112.12 C30.57 136.3, -2.06 139.92, -8.91 145.23 M1.64 -0.8 C7.14 18.27, 35.73 89.34, 34.37 113.32 C33.02 137.31, 0.81 137.89, -6.49 143.12" stroke="#f08c00" stroke-width="2" fill="none"></path></g><g transform="translate(994.2203979492188 327.27740478515625) rotate(0 12.304931640625114 72.39766759217974)"><path d="M12.77 127.17 C5.67 132.07, -2.92 137.6, -6.49 143.12 M12.77 127.17 C6.89 131.48, -1.32 138.3, -6.49 143.12" stroke="#f08c00" stroke-width="2" fill="none"></path></g><g transform="translate(994.2203979492188 327.27740478515625) rotate(0 12.304931640625114 72.39766759217974)"><path d="M18.51 143.28 C9.38 142.1, -1.37 141.57, -6.49 143.12 M18.51 143.28 C10.85 142.13, 0.7 143.54, -6.49 143.12" stroke="#f08c00" stroke-width="2" fill="none"></path></g></g><mask></mask><g transform="translate(54.38520050048828 276.09259033203125) rotate(0 63.12596893310547 17.5)"><text x="63.12596893310547" y="0" font-family="Virgil, Segoe UI Emoji" font-size="28px" fill="#099268" text-anchor="middle" style="white-space: pre;" direction="ltr" dominant-baseline="text-before-edge">Backends</text></g><g transform="translate(55.84393310546875 444.98204345703124) rotate(0 66.02396392822266 17.5)"><text x="66.02396392822266" y="0" font-family="Virgil, Segoe UI Emoji" font-size="28px" fill="#9c36b5" text-anchor="middle" style="white-space: pre;" direction="ltr" dominant-baseline="text-before-edge">Frontends</text></g><g stroke-linecap="round" transform="translate(30.64996337890625 222.35943603515625) rotate(0 508.0291748046874 75.92813110351562)"><path d="M32 0 C404.42 -3.01, 776.7 -2.94, 984.06 0 M984.06 0 C1004.37 1.23, 1016.16 10.6, 1016.06 32 M1016.06 32 C1016.72 52.26, 1014.43 75.6, 1016.06 119.86 M1016.06 119.86 C1014.47 140.97, 1006.23 153.08, 984.06 151.86 M984.06 151.86 C660.75 151.24, 338.68 151.65, 32 151.86 M32 151.86 C10.64 152.91, -1.27 142.07, 0 119.86 M0 119.86 C-1.62 91.48, 0.91 63.76, 0 32 M0 32 C-0.05 9.83, 10.88 1.77, 32 0" stroke="#2f9e44" stroke-width="2.5" fill="none" stroke-dasharray="1.5 8"></path></g><g stroke-linecap="round" transform="translate(36.59039306640625 393.790771484375) rotate(0 507.82647705078125 64.11029052734375)"><path d="M32 0 C399.66 2.34, 767.57 2.37, 983.65 0 M983.65 0 C1006.21 1.39, 1014.01 12.43, 1015.65 32 M1015.65 32 C1016.42 53.94, 1016.32 76.5, 1015.65 96.22 M1015.65 96.22 C1013.87 115.7, 1003.08 128.35, 983.65 128.22 M983.65 128.22 C672.19 125.34, 359.14 124.13, 32 128.22 M32 128.22 C12.27 128.95, 1.92 116.97, 0 96.22 M0 96.22 C-0.4 77.93, 1.44 61.86, 0 32 M0 32 C-1.56 11.31, 8.93 -1.78, 32 0" stroke="#9c36b5" stroke-width="2.5" fill="none" stroke-dasharray="1.5 8"></path></g><g stroke-linecap="round" transform="translate(10 10) rotate(0 532.0171203613281 265.2357177734375)"><path d="M32 0 C236.87 6.72, 442.23 4.95, 1032.03 0 M32 0 C359.43 7.12, 685.29 7.14, 1032.03 0 M1032.03 0 C1050.41 1.92, 1067.05 12.08, 1064.03 32 M1032.03 0 C1054.74 1.11, 1061.1 14.77, 1064.03 32 M1064.03 32 C1064.62 188.09, 1065.62 342.66, 1064.03 498.47 M1064.03 32 C1061.91 175.3, 1061.39 320.04, 1064.03 498.47 M1064.03 498.47 C1062.95 521.02, 1052.16 533.21, 1032.03 530.47 M1064.03 498.47 C1061.37 519.86, 1049.74 534.31, 1032.03 530.47 M1032.03 530.47 C804.85 528.08, 578.51 527.05, 32 530.47 M1032.03 530.47 C779.95 528.54, 528.82 529.43, 32 530.47 M32 530.47 C11.17 533.3, -1.61 521.01, 0 498.47 M32 530.47 C11.12 529.32, 2.05 520.9, 0 498.47 M0 498.47 C-0.02 392.77, 0.81 282.62, 0 32 M0 498.47 C-1.9 337.21, -2.45 176.25, 0 32 M0 32 C-1.78 7.58, 14.5 -0.58, 32 0 M0 32 C-2.49 8.36, 6.19 -0.77, 32 0" stroke="#e03131" stroke-width="2" fill="none"></path></g><g transform="translate(460.17452239990234 16.66253662109375) rotate(0 64.4699478149414 17.5)"><text x="64.4699478149414" y="0" font-family="Virgil, Segoe UI Emoji" font-size="28px" fill="#e03131" text-anchor="middle" style="white-space: pre;" direction="ltr" dominant-baseline="text-before-edge">OpenShift</text></g><g stroke-linecap="round" transform="translate(448.7061767578125 387.51300048828125) rotate(0 0.081878662109375 0.081878662109375)"><path d="M0.04 0 C0.07 0, 0.1 0, 0.12 0 M0.04 0 C0.07 0, 0.1 0, 0.12 0 M0.12 0 C0.65 -0.42, 0.6 -0.32, 0.16 0.04 M0.12 0 C0.8 0.01, -0.08 -0.62, 0.16 0.04 M0.16 0.04 C0.17 0.06, 0.16 0.08, 0.16 0.12 M0.16 0.04 C0.16 0.06, 0.16 0.08, 0.16 0.12 M0.16 0.12 C0.42 0.7, -0.41 0.46, 0.12 0.16 M0.16 0.12 C0.61 -0.15, 0.36 -0.27, 0.12 0.16 M0.12 0.16 C0.1 0.17, 0.08 0.16, 0.04 0.16 M0.12 0.16 C0.1 0.16, 0.08 0.16, 0.04 0.16 M0.04 0.16 C-0.15 0.59, -0.04 -0.33, 0 0.12 M0.04 0.16 C-0.16 0.66, 0.23 -0.12, 0 0.12 M0 0.12 C0 0.09, 0 0.07, 0 0.04 M0 0.12 C0 0.1, 0 0.07, 0 0.04 M0 0.04 C0.42 0.06, -0.18 -0.56, 0.04 0 M0 0.04 C0.65 0.41, 0.39 -0.17, 0.04 0" stroke="#e03131" stroke-width="2" fill="none"></path></g><g transform="translate(448.7448501586914 387.5886017862956) rotate(0 0.04320526123046875 0.0062773640950553045)"><text x="0.04320526123046875" y="0" font-family="Helvetica, Segoe UI Emoji" font-size="0.010917154947916667px" fill="#e03131" text-anchor="middle" style="white-space: pre;" direction="ltr" dominant-baseline="text-before-edge">Empty Web-Embed</text></g><g stroke-linecap="round" transform="translate(448.7061767578125 387.51300048828125) rotate(0 0.081878662109375 0.081878662109375)"><a href="" target="_blank" rel="noopener noreferrer" style="border-radius: 0.0409393px;"></a></g></svg>